<?xml version="1.0" encoding="utf-8"?>
<!-- Generator: Adobe Illustrator 23.0.3, SVG Export Plug-In . SVG Version: 6.00 Build 0)  -->
<svg version="1.1" id="Capa_1" xmlns="http://www.w3.org/2000/svg" xmlns:xlink="http://www.w3.org/1999/xlink" x="0px" y="0px"
	 viewBox="0 0 213 215" style="enable-background:new 0 0 213 215;" xml:space="preserve">
<style type="text/css">
	.st0{clip-path:url(#SVGID_2_);}
	.st1{fill:#DBA18F;}
	.st2{fill:#E0A579;}
	.st3{fill:#EAB081;}
	.st4{fill:#20B7EA;}
	.st5{fill:#294C5E;}
	.st6{fill:#1C9EC6;}
	.st7{fill:#244356;}
	.st8{fill:#F0B784;}
	.st9{fill:#FFC28E;}
	.st10{fill:#171B21;}
	.st11{fill:#FFFFFF;}
	.st12{fill:#315563;}
</style>
<g>
	<defs>
		<circle id="SVGID_1_" cx="106.85" cy="106.15" r="106.85"/>
	</defs>
	<clipPath id="SVGID_2_">
		<use xlink:href="#SVGID_1_"  style="overflow:visible;"/>
	</clipPath>
	<g id="_x31_4_1_" class="st0">
		<g>
			<g>
				<g>
					<g>
						<g>
							<g>
								<path class="st1" d="M124.39,106.08c-0.01,0.01-0.02,0.02-0.04,0.03L124.39,106.08L124.39,106.08z"/>
							</g>
							<g>
								<path class="st1" d="M123.05,107.32c0.4-0.44,0.84-0.83,1.3-1.21l-2.17,2.16C122.47,107.96,122.76,107.64,123.05,107.32z"/>
							</g>
							<g>
								<path class="st2" d="M128.49,116.7c-0.72-2.25-1.08-4.6-1.08-6.95v-5.89c-1.03,0.72-2.07,1.42-3.02,2.22l-0.01,0.01
									l-2.2,2.19c-1.07,1.18-2.16,2.31-3.34,3.33l-0.01,0.01c-1.01,0.87-2.07,1.68-3.32,2.33c-1.89,0.97-4.51,0.99-6.94,0.87v7.04
									l0,0l-0.13,12.88h0.09h0.05c8.87-0.18,16.74-4.52,21.69-11.17l0.16-0.3C130.57,123.3,129.42,119.59,128.49,116.7z"/>
							</g>
							<g>
								<path class="st3" d="M108.57,121.85v-7.04l0,0c-0.3,0.02-0.61,0.02-0.92,0.03c-0.32,0.01-0.63,0.03-0.95,0.03
									c-0.36,0-0.72-0.03-1.07-0.04c-0.26-0.01-0.52-0.01-0.77-0.03c-0.41-0.04-0.8-0.12-1.19-0.2c-0.18-0.03-0.38-0.05-0.55-0.09
									c-0.56-0.14-1.07-0.32-1.55-0.56c-3.14-1.62-5.26-4.11-7.55-6.62c-1.57-1.72-3.66-2.91-5.52-4.31l-0.24,8.19
									c-0.04,1.21-0.21,2.4-0.54,3.57c-0.82,2.93-2.36,8.54-2.18,8.49l0.01,0.02c2.91,3.99,6.82,7.17,11.41,9.14h0l0.01,0
									c2.7,1.19,5.66,1.95,8.75,2.2h0c0.68,0.05,1.37,0.1,2.05,0.1h0h0.5h0.16L108.57,121.85L108.57,121.85z"/>
							</g>
							<g>
								<g>
									<path class="st4" d="M107.35,134.5v41.62c-3.17,2.15-8.24,2.39-11.47,6.13c-2.33,2.72-4.07,5.31-5.56,7.99
										c-0.31,0.55-0.6,1.08-0.86,1.64c-0.26,0.55-0.51,1.13-0.71,1.7c-2.46,6.2-4.67,12.71-6.91,19.26
										c-1-0.22-1.95-0.46-2.92-0.71c-1.11-0.29-2.21-0.58-3.3-0.93c-3.48-1-6.88-2.17-10.21-3.52c-3.14-1.26-6.2-2.68-9.19-4.25
										c-0.49-0.24-1-0.49-1.48-0.78c-0.4-0.2-0.8-0.42-1.22-0.66c-0.18-0.11-0.38-0.22-0.57-0.35
										c-11.38-6.4-21.48-14.85-29.75-24.86c-0.44-0.51-0.86-1.04-1.28-1.57c1.48-5.8,3.21-11.53,5.16-17.18
										c2.99-8.59,5.91-15.19,8.61-18.2c2.81-3.1,4.52-4.94,8.64-6.2c1.5-0.44,15.08-1.9,17.51-3.03c0.2-0.09,0.33-0.2,0.35-0.29
										c0.02-0.02,0.02-0.02,0.02-0.04v34.56h15.61v-39.27c2.92-0.89,5.29-1.62,6.75-2.01c0.33-0.13,0.64-0.2,0.84-0.24
										c0.07,0.07,0.11,0.13,0.22,0.27c0.6,0.78,1.26,1.55,2.02,2.26c0.02,0.02,0.02,0.02,0.04,0.02
										C92.5,130.56,100.22,133.73,107.35,134.5z"/>
								</g>
								<path class="st5" d="M60.37,168.8l-6.84,33.21c0.42,0.24,0.82,0.46,1.22,0.66c0.49,0.29,1,0.53,1.48,0.78
									c2.99,1.57,6.04,2.99,9.19,4.25c3.32,1.35,6.73,2.52,10.21,3.52c1.09,0.35,2.19,0.64,3.3,0.93
									c0.97,0.24,1.93,0.49,2.92,0.71c2.15,0.49,4.34,0.91,6.55,1.26c1.22,0.2,2.46,0.38,3.68,0.51c2.5,0.31,5.05,0.55,7.62,0.66
									c1.9,0.13,3.83,0.18,5.76,0.18c0.6,0,1.22,0,1.82-0.02h0.09V168.8H60.37z M63.47,174.49v-3.48H75.6v3.48H63.47z"/>
								<g>
									<path class="st5" d="M74.74,126.51c-3.76,1.17-8.15,2.48-12.53,3.81h-0.02c-0.13,0.04-0.24,0.07-0.35,0.11v34.4h15.59
										v-39.12C76.58,125.94,75.69,126.22,74.74,126.51z M75.6,162.4H63.47v-3.48H75.6V162.4z"/>
								</g>
								<g>
									<rect x="63.47" y="171.01" class="st6" width="12.13" height="3.48"/>
								</g>
								<g>
									<rect x="63.47" y="158.93" class="st6" width="12.13" height="3.48"/>
								</g>
								<g>
									<path class="st7" d="M99.69,191.89v23.4c-2.57-0.11-5.11-0.35-7.62-0.66c-1.22-0.13-2.46-0.31-3.68-0.51
										c-2.21-0.35-4.4-0.78-6.55-1.26c-1-0.22-1.95-0.46-2.92-0.71c-1.11-0.29-2.21-0.58-3.3-0.93c-3.48-1-6.88-2.17-10.21-3.52
										v-15.81H99.69z"/>
								</g>
							</g>
							<g>
								<g>
									<path class="st4" d="M191.79,171.52c-0.33,0.49-0.71,0.97-1.09,1.46c-7.99,10.65-17.98,19.75-29.4,26.74
										c-0.18,0.11-0.35,0.22-0.53,0.31c-0.35,0.22-0.71,0.44-1.06,0.64c-0.42,0.24-0.82,0.49-1.24,0.73
										c-2.99,1.7-6.04,3.25-9.19,4.67c-0.97,0.44-1.99,0.86-2.99,1.28c-0.82,0.35-1.64,0.69-2.48,1
										c-1.75,0.69-3.52,1.31-5.31,1.88c-1.02,0.33-2.04,0.64-3.06,0.95c-0.95,0.29-1.9,0.55-2.88,0.8
										c-2.15-6.27-4.27-12.46-6.62-18.4c-0.22-0.58-0.44-1.15-0.71-1.7c-0.27-0.55-0.55-1.08-0.86-1.64
										c-1.53-2.68-3.23-5.27-5.56-7.99c-3.23-3.74-8.3-3.98-11.47-6.13V134.5c0.35-0.04,0.73-0.09,1.09-0.13
										c7.95-1.13,16.36-5.11,20.63-10.8c0.09-0.13,0.13-0.2,0.2-0.27c0.22,0.04,0.53,0.11,0.86,0.24
										c0.04,0.02,0.07,0.02,0.13,0.04h0.02c1.42,0.4,3.74,1.11,6.6,1.97v39.27h15.61v-34.56c0,0.02,0,0.02,0.02,0.04
										c0.02,0.09,0.16,0.2,0.35,0.29c2.44,1.13,16.01,2.59,17.51,3.03c4.12,1.26,5.82,3.1,8.63,6.2c2.7,3.01,5.6,9.61,8.59,18.2
										C189.15,162.49,190.55,166.98,191.79,171.52z"/>
								</g>
								<path class="st7" d="M139.1,171.01v3.48h12.13v-3.48H139.1z M154.33,168.8h-46.98v46.65c2.59-0.04,5.14-0.18,7.66-0.4
									c6.02-0.53,11.89-1.55,17.56-3.05c0.97-0.24,1.93-0.51,2.88-0.8c1.02-0.31,2.04-0.62,3.06-0.95
									c1.79-0.58,3.56-1.2,5.31-1.88c0.84-0.31,1.66-0.64,2.48-1c1-0.42,2.01-0.84,2.99-1.28c3.14-1.42,6.2-2.97,9.19-4.67
									c0.42-0.24,0.82-0.49,1.24-0.73c0.35-0.2,0.71-0.42,1.06-0.64L154.33,168.8z"/>
								<g>
									<path class="st5" d="M152.51,130.32h-0.02c-4.38-1.33-8.77-2.63-12.55-3.81c-0.93-0.29-1.82-0.58-2.68-0.8v39.12h15.61
										v-34.4C152.76,130.39,152.62,130.36,152.51,130.32z M151.23,162.4H139.1v-3.48h12.13V162.4z"/>
								</g>
								<g>
									<rect x="139.1" y="171.01" class="st6" width="12.13" height="3.48"/>
								</g>
								<g>
									<rect x="139.1" y="158.93" class="st6" width="12.13" height="3.48"/>
								</g>
								<g>
									<path class="st5" d="M149.28,191.89v14.19c-0.97,0.44-1.99,0.86-2.99,1.28c-0.82,0.35-1.64,0.69-2.48,1
										c-1.75,0.69-3.52,1.31-5.31,1.88c-1.02,0.33-2.04,0.64-3.06,0.95c-0.95,0.29-1.9,0.55-2.88,0.8
										c-5.67,1.51-11.53,2.52-17.56,3.05v-23.16H149.28z"/>
								</g>
							</g>
						</g>
					</g>
					<g>
						<g>
							<g>
								<path class="st8" d="M84.45,101.85c0.2,1.52,0.94,2.93,2.08,3.96l9.96,9c-2.23-9.96-7.74-18.09-13.84-26.67L84.45,101.85z"
									/>
							</g>
							<g>
								<path class="st9" d="M132.68,92.27l1.72-13.83c-0.02-5.52,0.17-11.07-0.07-16.59c-0.14-3.26-1.17-5.12-4.21-6.92
									c-3.72-2.2-6.57-1.08-9.87,0.07c-1.09,0.38-2.22,0.75-3.45,1.02c-3.52,0.75-7.41,1.41-10.79-0.12
									c-5.54-2.52-10.9-6.61-17.52-6.25c-1.18,0.06-2.36,0.29-3.39,0.81c-2.18,1.1-3.37,3.31-4.01,5.49
									c-1.58,5.37,0.8,9.89,0.2,15.42c0.04,2.49,0.09,4.97,0.13,7.47l1.23,9.32c6.1,8.57,11.61,16.7,13.84,26.67l2.38,2.15
									c1.12,1.01,2.58,1.57,4.09,1.56l5.09-0.04l5.1-0.04c1.5-0.01,2.94-0.58,4.05-1.6l3.54-3.27
									C120.89,104.53,124.1,95.52,132.68,92.27z"/>
							</g>
							<g>
								<path class="st8" d="M132.68,92.27c-8.58,3.25-11.79,12.27-11.94,21.31l9.36-8.66c0.73-0.68,1.2-1.59,1.32-2.58
									L132.68,92.27z"/>
							</g>
							<g>
								<path class="st9" d="M84.65,78.69c-0.38-2.46-0.67-4.42-0.84-4.96c-0.16-0.53-0.43-1.14-1.02-1.26
									c-0.32-0.06-0.68,0.31-0.95,0.15c-2.13-1.25-3.46,0.19-4.13,2.18c-0.78,2.33-0.55,3.85,0.54,5.93
									c1.27,2.41,2.07,5.06,3.14,7.57c0.27,0.65,1.44,4.31,2.4,4.31c0.01,0,4.65-0.04,4.65-0.04
									C86.88,92.58,85.52,84.32,84.65,78.69z"/>
							</g>
							<g>
								<path class="st9" d="M131.16,78.35c0.26-1.76,0.65-3.49,1.62-5.43c0.46-0.92,1.47-2,2.46-1.53
									c1.34,0.65,2.29,2.23,2.86,3.54c0.87,2.02,0.02,3.07-0.81,5c-0.54,1.25-4.32,12.3-5.15,12.31l-4.65,0.04
									c1-3.02,2.45-6.13,3.02-9.23C130.81,81.36,130.94,79.84,131.16,78.35z"/>
							</g>
							<g>
								<path class="st10" d="M83.63,83.25c-0.46-4.22-0.78-8.47-1.58-12.64c-1.07-5.54,2.01-11.29,5.27-16.05
									c0.53-0.78,1.17-1.59,2.13-1.86c1.31-0.37,2.65,0.37,3.77,1.07c3.78,2.33,12.33,5.3,12.33,5.3s8.9,0.28,13.17-0.64
									c2.94-0.63,6.91-2.75,9.89-1.04c2.43,1.4,3.09,5.74,4.08,8.28l0.17,20.98l2.75-8.39c2.19-7.37,2.75-24.39,2.75-24.39
									s-11.85-12.04-18.79-10.73c2.46-0.46,6.96,0.21,9.43-0.25c-9.37-2.87-17.07-5.59-24.79-4.33
									c-7.72,1.27-14.91,4.67-20.93,9.21c-2.68,2.02-6.74,7.13-6.74,7.13S76.6,73.16,83.63,83.25z"/>
							</g>
						</g>
						<g>
							<path class="st11" d="M97.01,100.56c3.02,0.81,7.43,1.61,12.74,1.3c4.01-0.24,7.37-1.04,9.91-1.85
								c-0.82,1.65-1.63,3.3-2.45,4.95c-1.35,0.82-5.19,2.9-10.2,2.3c-2.55-0.3-4.53-1.2-5.79-1.91
								C99.82,103.75,98.41,102.16,97.01,100.56z"/>
						</g>
						<g>
							<path class="st10" d="M87.43,78.96c13.37-2.63,14.46,2.81,14.46,2.81s1.5-3.11-0.13-5.28
								C94.99,74.82,87.43,78.96,87.43,78.96z"/>
							<path class="st10" d="M114.06,75.88c-1.52,2.24,0.13,5.28,0.13,5.28s0.82-5.48,14.31-3.52
								C128.5,77.64,120.73,73.88,114.06,75.88z"/>
						</g>
						<g>
							<path class="st2" d="M103.95,92.92l2.63,2.85c0.54,0.23,2.8,1.1,5.44,0.17c3-1.05,4.21-3.63,4.41-4.08l-2.77,7.37
								c-4.38-0.31-4.06-0.29-8.45-0.6L103.95,92.92z"/>
						</g>
					</g>
				</g>
			</g>
		</g>
		<g>
			<g>
				<path class="st5" d="M75.62,55.02c0,2.57,0.45,5.05,1.23,7.4h29.6V30.77C89.37,30.99,75.62,40.31,75.62,55.02z"/>
				<path class="st7" d="M107.05,30.75c-0.2,0-0.4,0.02-0.6,0.02v31.66h30.81c0.78-2.36,1.23-4.83,1.23-7.4
					C138.48,40.13,124.41,30.75,107.05,30.75z"/>
			</g>
			<path class="st12" d="M77.47,62c4.34,9.34,15.93,11.23,29.58,11.23c13.65,0,25.24-1.89,29.58-11.23H77.47z"/>
		</g>
	</g>
</g>
</svg>
